<?xml version="1.0" encoding="UTF-8" standalone="no"?>
<svg
   xmlns:dc="http://purl.org/dc/elements/1.1/"
   xmlns:cc="http://creativecommons.org/ns#"
   xmlns:rdf="http://www.w3.org/1999/02/22-rdf-syntax-ns#"
   xmlns:svg="http://www.w3.org/2000/svg"
   xmlns="http://www.w3.org/2000/svg"
   xmlns:sodipodi="http://sodipodi.sourceforge.net/DTD/sodipodi-0.dtd"
   xmlns:inkscape="http://www.inkscape.org/namespaces/inkscape"
   width="210mm"
   height="297mm"
   viewBox="0 0 210 297"
   version="1.1"
   id="svg8"
   sodipodi:docname="schéma 3D.svg"
   inkscape:version="1.0.1 (3bc2e813f5, 2020-09-07)">
  <defs
     id="defs2" />
  <sodipodi:namedview
     id="base"
     pagecolor="#ffffff"
     bordercolor="#666666"
     borderopacity="1.0"
     inkscape:pageopacity="0.0"
     inkscape:pageshadow="2"
     inkscape:zoom="0.7"
     inkscape:cx="426.63399"
     inkscape:cy="573.41878"
     inkscape:document-units="mm"
     inkscape:current-layer="svg8"
     inkscape:document-rotation="0"
     showgrid="false"
     inkscape:window-width="1920"
     inkscape:window-height="1058"
     inkscape:window-x="1912"
     inkscape:window-y="-8"
     inkscape:window-maximized="1" />
  <metadata
     id="metadata5">
    <rdf:RDF>
      <cc:Work
         rdf:about="">
        <dc:format>image/svg+xml</dc:format>
        <dc:type
           rdf:resource="http://purl.org/dc/dcmitype/StillImage" />
        <dc:title></dc:title>
      </cc:Work>
    </rdf:RDF>
  </metadata>
  <g
     inkscape:label="Calque 1"
     inkscape:groupmode="layer"
     id="layer1">
    <path
       style="fill:none;stroke:#000000;stroke-width:0.264583px;stroke-linecap:butt;stroke-linejoin:miter;stroke-opacity:1"
       d="m 189.74405,222.25 c 0,7.55952 0,7.9375 0,7.9375"
       id="path833" />
    <path
       style="fill:none;stroke:#000000;stroke-width:0.264583px;stroke-linecap:butt;stroke-linejoin:miter;stroke-opacity:1"
       d="m 182.18452,226.40774 -0.37797,8.69345"
       id="path837" />
    <path
       style="fill:none;stroke:#000000;stroke-width:0.264583px;stroke-linecap:butt;stroke-linejoin:miter;stroke-opacity:1"
       d="m 174.24702,231.32142 v 8.69346"
       id="path839" />
    <path
       style="fill:none;stroke:#000000;stroke-width:0.264583px;stroke-linecap:butt;stroke-linejoin:miter;stroke-opacity:1"
       d="m 167.06547,235.47916 -0.37797,-8.69345 7.55952,4.53571 7.9375,-4.91368"
       id="path841" />
    <path
       style="fill:none;stroke:#000000;stroke-width:0.264583px;stroke-linecap:butt;stroke-linejoin:miter;stroke-opacity:1"
       d="M 182.18452,226.40774 189.74405,222.25"
       id="path843" />
    <path
       style="fill:none;stroke:#000000;stroke-width:0.264583px;stroke-linecap:butt;stroke-linejoin:miter;stroke-opacity:1"
       d="m 166.6875,226.78571 16.25297,-9.82738 6.80358,5.29167"
       id="path845" />
    <path
       style="fill:none;stroke:#000000;stroke-width:0.227216px;stroke-linecap:butt;stroke-linejoin:miter;stroke-opacity:1"
       d="m 176.13691,139.47947 c -1.88988,83.90445 -1.51191,83.90445 -1.51191,83.90445"
       id="path847" />
  </g>
  <g
     id="g863"
     transform="matrix(0.13973574,0,0,0.12514446,173.12013,134.28867)" />
  <path
     d="m 183.00094,124.07066 9.88081,5.10901"
     stroke="#0000ff"
     stroke-width="0.132239"
     style="stroke-linecap:round;stroke:#ff0000"
     profondeur="-86.60254037844388"
     id="path865" />
  <path
     d="m 189.67252,133.22812 -0.1093,0.0529 -0.23281,0.0919 -0.24524,0.0699 -0.25669,0.0477 -0.26715,0.0252 -0.27654,0.003 -0.28483,-0.0198 -0.29201,-0.0423 -0.29804,-0.0646 -0.30289,-0.0866 -0.30654,-0.1083 -0.30898,-0.12956 -0.31022,-0.15031 -0.31021,-0.17048 -0.30899,-0.18997 -0.30655,-0.20871 -0.30287,-0.22662 -0.29805,-0.24366 -0.29202,-0.25971 -0.28483,-0.27474 -0.27654,-0.2887 -0.26715,-0.30151 -0.25669,-0.31313 -0.24524,-0.32352 -0.2328,-0.33263 -0.21947,-0.34042 -0.20524,-0.34687 -0.19022,-0.35197 -0.17445,-0.35566 -0.15798,-0.35795 -0.14091,-0.35883 -0.12327,-0.35829 -0.10512,-0.35633 -0.0866,-0.35299 -0.0677,-0.34824 -0.0486,-0.3421 -0.0292,-0.33464 -0.01,-0.32583 v 0 l 0.01,-0.31576 0.0292,-0.30443 0.0486,-0.2919 0.0677,-0.27822 0.0866,-0.26344 0.10512,-0.24761 0.12327,-0.23083 0.14091,-0.21312 0.15798,-0.19456 0.17445,-0.17527 0.19022,-0.15524 0.20524,-0.13463 0.11016,-0.0605 -19.76161,10.218 -0.11016,0.0605 -0.20524,0.13463 -0.19022,0.15524 -0.17446,0.17525 -0.15799,0.19458 -0.14089,0.21312 -0.12327,0.23081 -0.10513,0.24763 -0.0866,0.26344 -0.0677,0.27822 -0.0485,0.2919 -0.0292,0.30443 -0.01,0.31575 v 0 l 0.01,0.32584 0.0292,0.33463 0.0485,0.34211 0.0677,0.34823 0.0866,0.35298 0.10513,0.35635 0.12327,0.35829 0.14089,0.35882 0.15799,0.35796 0.17446,0.35566 0.19022,0.35195 0.20524,0.34688 0.21946,0.34043 0.23281,0.33262 0.24524,0.32352 0.25669,0.31314 0.26715,0.3015 0.27654,0.28871 0.28483,0.27474 0.29201,0.25971 0.29804,0.24364 0.30289,0.22663 0.30654,0.20871 0.30898,0.18997 0.31022,0.17049 0.31021,0.15031 0.30899,0.12956 0.30655,0.10829 0.30287,0.0866 0.29805,0.0646 0.29202,0.0423 0.28483,0.0198 0.27654,-0.003 0.26715,-0.0253 0.25669,-0.0477 0.24524,-0.0699 0.2328,-0.0919 0.10931,-0.053 z"
     stroke="#ff0000"
     stroke-width="0.132239"
     style="fill:#ffffff;stroke:#000000"
     profondeur="-11.428149057870105"
     id="path867" />
  <path
     d="m 192.88175,124.07066 -39.52324,20.43602"
     stroke="#0000ff"
     stroke-width="0.132239"
     style="stroke-linecap:round;stroke:#ff0000"
     profondeur="0.0"
     id="path869" />
  <path
     d="m 155.00532,138.54617 9.8808,5.109"
     stroke="#0000ff"
     stroke-width="0.132239"
     style="stroke-linecap:round;stroke:#ff0000"
     profondeur="0.0"
     id="path871" />
  <path
     d="m 182.00996,122.91388 0.10931,-0.053 0.2328,-0.0919 0.24524,-0.0699 0.25669,-0.0477 0.26715,-0.0253 0.27654,-0.003 0.28483,0.0198 0.29202,0.0423 0.29805,0.0646 0.30287,0.0866 0.30655,0.10829 0.30899,0.12956 0.31021,0.15031 0.31022,0.17049 0.30898,0.18997 0.30654,0.20871 0.30289,0.22663 0.29804,0.24364 0.29201,0.25971 0.28483,0.27474 0.27654,0.28871 0.26715,0.3015 0.25669,0.31314 0.24524,0.32352 0.23281,0.33262 0.21946,0.34042 0.20524,0.34688 0.19022,0.35195 0.17446,0.35566 0.15799,0.35796 0.14089,0.35882 0.12327,0.35829 0.10513,0.35635 0.0866,0.35298 0.0677,0.34823 0.0485,0.34211 0.0292,0.33463 0.01,0.32585 -0.01,0.31574 -0.0292,0.30443 -0.0485,0.2919 -0.0677,0.27822 -0.0866,0.26344 -0.10513,0.24764 -0.12327,0.2308 -0.14089,0.21312 -0.15799,0.19458 -0.17446,0.17526 -0.19022,0.15523 -0.20524,0.13464 -0.11016,0.0605 -19.76161,10.21801 0.11016,-0.0605 0.20524,-0.13463 0.19022,-0.15525 0.17445,-0.17526 0.15798,-0.19457 0.14091,-0.21312 0.12327,-0.23083 0.10512,-0.24761 0.0866,-0.26344 0.0677,-0.27822 0.0486,-0.2919 0.0292,-0.30443 0.01,-0.31576 -0.01,-0.32583 -0.0292,-0.33464 -0.0486,-0.3421 -0.0677,-0.34824 -0.0866,-0.35299 -0.10512,-0.35633 -0.12327,-0.35829 -0.14091,-0.35883 -0.15798,-0.35795 -0.17445,-0.35566 -0.19022,-0.35197 -0.20524,-0.34687 -0.21947,-0.34042 -0.2328,-0.33263 -0.24524,-0.32352 -0.25669,-0.31313 -0.26715,-0.30151 -0.27654,-0.2887 -0.28483,-0.27474 -0.29202,-0.25971 -0.29805,-0.24366 -0.30287,-0.22662 -0.30655,-0.20871 -0.30899,-0.18997 -0.31021,-0.17048 -0.31022,-0.15031 -0.30898,-0.12956 -0.30654,-0.1083 -0.30289,-0.0866 -0.29804,-0.0646 -0.29201,-0.0423 -0.28483,-0.0198 -0.27654,0.003 -0.26715,0.0252 -0.25669,0.0477 -0.24524,0.0699 -0.23281,0.0919 -0.1093,0.053 z"
     stroke="#ff0000"
     stroke-width="0.132239"
     style="fill:#ffffff;stroke:#000000"
     profondeur="11.428149057870126"
     id="path873" />
  <g
     id="g908"
     transform="matrix(0.14783669,0,0,0.10687092,27.592257,209.77228)" />
  <path
     d="m 38.045893,201.0463 10.453636,4.363"
     stroke="#0000ff"
     stroke-width="0.125696"
     style="stroke-linecap:round"
     profondeur="-86.60254037844388"
     id="path910" />
  <path
     d="m 41.739533,210.03789 -0.115637,0.0452 -0.246311,0.0785 -0.259454,0.0597 -0.271576,0.0407 -0.282634,0.0216 -0.292569,0.002 -0.30135,-0.0169 -0.308934,-0.0361 -0.315321,-0.0551 -0.320451,-0.074 -0.324309,-0.0925 -0.326897,-0.11065 -0.328197,-0.12836 -0.328198,-0.14559 -0.326896,-0.16223 -0.324324,-0.17823 -0.320436,-0.19353 -0.315321,-0.20808 -0.308949,-0.22179 -0.301351,-0.23462 -0.292568,-0.24654 -0.282635,-0.25749 -0.271576,-0.26741 -0.259453,-0.27627 -0.246296,-0.28406 -0.232192,-0.29072 -0.217143,-0.29622 -0.20125,-0.30057 -0.184559,-0.30373 -0.167144,-0.30568 -0.149079,-0.30644 -0.130407,-0.30597 -0.111217,-0.3043 -0.09161,-0.30144 -0.07163,-0.29739 -0.05137,-0.29215 -0.0309,-0.28578 -0.01032,-0.27825 v 0 l 0.01032,-0.26965 0.0309,-0.25998 0.05137,-0.24927 0.07163,-0.2376 0.09161,-0.22497 0.111217,-0.21146 0.130407,-0.19712 0.149079,-0.182 0.167144,-0.16615 0.184559,-0.14968 0.20125,-0.13257 0.217143,-0.11497 0.116539,-0.0517 -20.907256,8.72596 -0.11654,0.0517 -0.217143,0.11497 -0.20125,0.13257 -0.184574,0.14966 -0.167144,0.16617 -0.149064,0.182 -0.130406,0.19711 -0.111233,0.21147 -0.09161,0.22497 -0.07163,0.2376 -0.05136,0.24927 -0.03091,0.25998 -0.0103,0.26964 v 0 l 0.0103,0.27826 0.03091,0.28577 0.05136,0.29216 0.07163,0.29738 0.09161,0.30144 0.111233,0.30431 0.130406,0.30597 0.149064,0.30643 0.167144,0.30569 0.184574,0.30372 0.20125,0.30057 0.217143,0.29622 0.232177,0.29072 0.246311,0.28406 0.259454,0.27628 0.271576,0.26741 0.282634,0.25747 0.292569,0.24656 0.30135,0.23462 0.308934,0.22179 0.315321,0.20807 0.320451,0.19353 0.324309,0.17824 0.326897,0.16223 0.328197,0.14559 0.328198,0.12836 0.326896,0.11064 0.324324,0.0925 0.320436,0.074 0.315321,0.0551 0.308949,0.0361 0.301351,0.0169 0.292568,-0.002 0.282635,-0.0216 0.271576,-0.0407 0.259453,-0.0597 0.246296,-0.0785 0.115653,-0.0452 z"
     stroke="#ff0000"
     stroke-width="0.125696"
     style="fill:#ffffff;stroke:#000000"
     profondeur="-11.428149057870105"
     id="path912" />
  <path
     d="M 48.499529,201.0463 6.6849853,218.49826"
     stroke="#0000ff"
     stroke-width="0.125696"
     style="stroke-linecap:round;stroke:#0000ff;fill:#000000"
     profondeur="0.0"
     id="path914" />
  <path
     d="m 8.4272703,213.4081 10.4536207,4.36299"
     stroke="#0000ff"
     stroke-width="0.125696"
     style="stroke-linecap:round"
     profondeur="0.0"
     id="path916" />
  <path
     d="m 34.352237,200.78038 0.115653,-0.0452 0.246296,-0.0785 0.259453,-0.0597 0.271576,-0.0407 0.282635,-0.0216 0.292568,-0.002 0.301351,0.0169 0.308949,0.0361 0.315321,0.0551 0.320436,0.0739 0.324324,0.0925 0.326896,0.11064 0.328198,0.12836 0.328197,0.14559 0.326897,0.16223 0.324309,0.17824 0.320451,0.19353 0.315321,0.20807 0.308934,0.22179 0.30135,0.23462 0.292569,0.24656 0.282634,0.25747 0.271576,0.26741 0.259454,0.27628 0.246311,0.28406 0.232177,0.29072 0.217143,0.29622 0.20125,0.30057 0.184574,0.30372 0.167144,0.30569 0.149064,0.30643 0.130406,0.30597 0.111233,0.30431 0.09161,0.30144 0.07163,0.29738 0.05136,0.29216 0.03091,0.28577 0.0103,0.27826 -0.0103,0.26964 -0.03091,0.25998 -0.05136,0.24927 -0.07163,0.2376 -0.09161,0.22497 -0.111233,0.21147 -0.130406,0.19711 -0.149064,0.182 -0.167144,0.16617 -0.184574,0.14966 -0.20125,0.13257 -0.217143,0.11497 -0.11654,0.0517 -20.907256,8.72596 0.116539,-0.0517 0.217143,-0.11497 0.20125,-0.13257 0.184559,-0.14968 0.167144,-0.16615 0.149079,-0.182 0.130407,-0.19712 0.111217,-0.21146 0.09161,-0.22497 0.07163,-0.2376 0.05137,-0.24927 0.0309,-0.25998 0.01032,-0.26965 -0.01032,-0.27825 -0.0309,-0.28578 -0.05137,-0.29215 -0.07163,-0.29739 -0.09161,-0.30144 -0.111217,-0.3043 -0.130407,-0.30597 -0.149079,-0.30644 -0.167144,-0.30568 -0.184559,-0.30373 -0.20125,-0.30057 -0.217143,-0.29622 -0.232192,-0.29072 -0.246296,-0.28406 -0.259453,-0.27627 -0.271576,-0.26741 -0.282635,-0.25749 -0.292568,-0.24654 -0.301351,-0.23462 -0.308949,-0.22179 -0.315321,-0.20808 -0.320436,-0.19353 -0.324324,-0.17823 -0.326896,-0.16223 -0.328198,-0.14559 -0.328197,-0.12836 -0.326897,-0.11065 -0.324309,-0.0925 -0.320451,-0.074 -0.315321,-0.0551 -0.308934,-0.0361 -0.30135,-0.0169 -0.292569,0.002 -0.282634,0.0216 -0.271576,0.0407 -0.259454,0.0597 -0.246311,0.0785 -0.115637,0.0452 z"
     stroke="#ff0000"
     stroke-width="0.125696"
     style="fill:#ffffff;stroke:#000000"
     profondeur="11.428149057870126"
     id="path918" />
  <path
     d="m 33.639876,222.41823 v -8.72598"
     stroke="#ff0000"
     stroke-width="0.125696"
     style="stroke-linecap:round;stroke:#000000"
     profondeur="577350269189.6259"
     id="path920" />
  <g
     id="g960"
     transform="matrix(0.14383462,0,0,0.11771278,139.65613,186.53907)" />
  <path
     d="m 149.82678,176.92786 10.17064,4.80561"
     stroke="#0000ff"
     stroke-width="0.13012"
     style="stroke-linecap:round;stroke:#00ff00"
     profondeur="-86.60254037844388"
     id="path962" />
  <path
     d="m 156.14529,187.37042 -0.11251,0.0498 -0.23964,0.0864 -0.25243,0.0658 -0.26423,0.0448 -0.27498,0.0238 -0.28465,0.003 -0.29319,-0.0186 -0.30057,-0.0397 -0.30679,-0.0607 -0.31177,-0.0815 -0.31553,-0.10187 -0.31805,-0.12187 -0.31931,-0.14138 -0.31932,-0.16036 -0.31804,-0.17869 -0.31555,-0.19631 -0.31176,-0.21316 -0.30678,-0.22919 -0.30059,-0.24429 -0.29319,-0.25843 -0.28465,-0.27155 -0.27498,-0.2836 -0.26423,-0.29454 -0.25243,-0.3043 -0.23963,-0.31288 -0.2259,-0.32021 -0.21127,-0.32627 -0.1958,-0.33107 -0.17956,-0.33454 -0.16262,-0.33669 -0.14504,-0.33752 -0.12688,-0.33701 -0.10821,-0.33518 -0.0891,-0.33202 -0.0697,-0.32756 -0.05,-0.32179 -0.0301,-0.31476 -0.01,-0.30648 v 0 l 0.01,-0.29701 0.0301,-0.28635 0.05,-0.27457 0.0697,-0.2617 0.0891,-0.24779 0.10821,-0.23291 0.12688,-0.21712 0.14504,-0.20047 0.16262,-0.183 0.17956,-0.16486 0.1958,-0.14602 0.21127,-0.12664 0.11338,-0.0569 -20.34128,9.6112 -0.11338,0.0569 -0.21127,0.12664 -0.1958,0.14602 -0.17958,0.16485 -0.16262,0.18302 -0.14502,0.20046 -0.12688,0.21711 -0.10822,0.23292 -0.0891,0.2478 -0.0697,0.2617 -0.05,0.27456 -0.0301,0.28635 -0.01,0.297 v 0 l 0.01,0.30649 0.0301,0.31476 0.05,0.32179 0.0697,0.32755 0.0891,0.33202 0.10822,0.33519 0.12688,0.33701 0.14502,0.33752 0.16262,0.33669 0.17958,0.33454 0.1958,0.33106 0.21127,0.32627 0.22589,0.32022 0.23964,0.31287 0.25243,0.30431 0.26423,0.29454 0.27498,0.28359 0.28465,0.27157 0.29319,0.25842 0.30057,0.24429 0.30679,0.22918 0.31177,0.21316 0.31553,0.19633 0.31805,0.17868 0.31931,0.16036 0.31932,0.14139 0.31804,0.12187 0.31555,0.10185 0.31176,0.0815 0.30678,0.0607 0.30059,0.0398 0.29319,0.0186 0.28465,-0.003 0.27498,-0.0238 0.26423,-0.0448 0.25243,-0.0658 0.23963,-0.0864 0.11252,-0.0498 z"
     stroke="#ff0000"
     stroke-width="0.13012"
     style="fill:#ffffff"
     profondeur="-11.428149057870105"
     id="path964" />
  <path
     d="m 159.99741,176.92786 -40.68258,19.22242"
     stroke="#0000ff"
     stroke-width="0.13012"
     style="stroke:#00ff00;stroke-linecap:round"
     profondeur="0.0"
     id="path966" />
  <path
     d="m 121.00996,190.54374 10.17063,4.8056"
     stroke="#0000ff"
     stroke-width="0.13012"
     style="stroke-linecap:round;stroke:#00ff00"
     profondeur="0.0"
     id="path968" />
  <path
     d="m 148.95797,177.17466 0.11252,-0.0498 0.23963,-0.0864 0.25243,-0.0658 0.26423,-0.0448 0.27498,-0.0238 0.28465,-0.003 0.29319,0.0186 0.30059,0.0398 0.30678,0.0607 0.31176,0.0815 0.31555,0.10185 0.31804,0.12187 0.31932,0.14139 0.31931,0.16036 0.31805,0.17868 0.31553,0.19633 0.31177,0.21316 0.30679,0.22918 0.30057,0.24429 0.29319,0.25842 0.28465,0.27157 0.27498,0.28359 0.26423,0.29454 0.25243,0.30431 0.23964,0.31287 0.22589,0.32022 0.21127,0.32627 0.1958,0.33106 0.17958,0.33454 0.16262,0.33669 0.14502,0.33752 0.12688,0.33701 0.10822,0.33519 0.0891,0.33202 0.0697,0.32755 0.05,0.32179 0.0301,0.31476 0.01,0.30649 -0.01,0.297 -0.0301,0.28635 -0.05,0.27456 -0.0697,0.2617 -0.0891,0.2478 -0.10822,0.23292 -0.12688,0.21711 -0.14502,0.20046 -0.16262,0.18302 -0.17958,0.16485 -0.1958,0.14602 -0.21127,0.12664 -0.11338,0.0569 -20.34128,9.6112 0.11338,-0.0569 0.21127,-0.12664 0.1958,-0.14602 0.17956,-0.16486 0.16262,-0.183 0.14504,-0.20047 0.12688,-0.21712 0.10821,-0.23291 0.0891,-0.24779 0.0697,-0.2617 0.05,-0.27457 0.0301,-0.28635 0.01,-0.29701 -0.01,-0.30648 -0.0301,-0.31476 -0.05,-0.32179 -0.0697,-0.32756 -0.0891,-0.33202 -0.10821,-0.33518 -0.12688,-0.33701 -0.14504,-0.33752 -0.16262,-0.33669 -0.17956,-0.33454 -0.1958,-0.33107 -0.21127,-0.32627 -0.2259,-0.32021 -0.23963,-0.31288 -0.25243,-0.3043 -0.26423,-0.29454 -0.27498,-0.2836 -0.28465,-0.27155 -0.29319,-0.25843 -0.30059,-0.24429 -0.30678,-0.22919 -0.31176,-0.21316 -0.31555,-0.19631 -0.31804,-0.17869 -0.31932,-0.16036 -0.31931,-0.14138 -0.31805,-0.12187 -0.31553,-0.10187 -0.31177,-0.0815 -0.30679,-0.0607 -0.30057,-0.0397 -0.29319,-0.0186 -0.28465,0.003 -0.27498,0.0238 -0.26423,0.0448 -0.25243,0.0658 -0.23964,0.0864 -0.11251,0.0498 z"
     stroke="#ff0000"
     stroke-width="0.13012"
     style="fill:#ffffff"
     profondeur="11.428149057870126"
     id="path970" />
  <path
     d="m 139.65613,181.73347 v -9.61121"
     stroke="#ff0000"
     stroke-width="0.13012"
     style="stroke-linecap:round"
     profondeur="577350269189.6259"
     id="path972" />
  <ellipse
     style="fill:#ffffff;stroke:#000000;stroke-width:0.232979"
     id="path987"
     cx="86.934525"
     cy="184.26338"
     rx="32.14378"
     ry="42.53812" />
  <ellipse
     style="fill:#ffffff;stroke:#0000ff;stroke-width:0.308556"
     id="path989"
     cx="86.745537"
     cy="185.20833"
     rx="14.530097"
     ry="21.522655" />
  <ellipse
     style="fill:#ffffff;stroke:#00ff00;stroke-width:0.272777"
     id="path991"
     cx="84.099701"
     cy="216.58037"
     rx="9.25632"
     ry="9.4453077" />
  <path
     style="fill:none;stroke:#0000ff;stroke-width:0.264583px;stroke-linecap:butt;stroke-linejoin:miter;stroke-opacity:1"
     d="m 48.499529,201.0463 33.521303,-15.83797 -9.827381,-5.66964"
     id="path995" />
  <path
     style="fill:none;stroke:#00ff00;stroke-width:0.264583px;stroke-linecap:butt;stroke-linejoin:miter;stroke-opacity:1"
     d="m 119.31483,196.15028 -36.538046,20.0521 -6.80357,-4.91369"
     id="path999" />
  <path
     style="fill:none;stroke:#ff0000;stroke-width:0.264583px;stroke-linecap:butt;stroke-linejoin:miter;stroke-opacity:1"
     d="m 153.3585,144.50668 -13.12934,8.1957 -0.57303,19.41988"
     id="path1015" />
  <path
     style="fill:none;stroke:#000000;stroke-width:0.264583px;stroke-linecap:butt;stroke-linejoin:miter;stroke-opacity:1"
     d="M 175.00297,211.28869 34.773809,286.50594 33.639876,222.41823"
     id="path1024" />
</svg>
